<svg xmlns="http://www.w3.org/2000/svg" viewBox="0 0 900 600" preserveAspectRatio="xMidYMid slice">
<defs><linearGradient id="r1204" x1="0" y1="0" x2="0" y2="1"><stop offset="0" stop-color="#EBD7DE"/><stop offset="0.55" stop-color="#D6B9C6"/><stop offset="1" stop-color="#C09AAE"/></linearGradient></defs>
<rect width="900" height="600" fill="url(#g1204)"/>
<linearGradient id="g1204" x1="0" y1="0" x2="0" y2="1"><stop offset="0" stop-color="#3A1F63"/><stop offset="0.55" stop-color="#8C3D75"/><stop offset="1" stop-color="#F0B27A"/></linearGradient><circle cx="748.431019638665" cy="156" r="45" fill="#FFD9A0"/><circle cx="748.431019638665" cy="156" r="63" fill="#FFD9A0" opacity="0.25"/><ellipse cx="741" cy="127" rx="168" ry="16" fill="#ffffff" opacity="0.18"/><ellipse cx="475" cy="90" rx="182" ry="16" fill="#ffffff" opacity="0.20"/><ellipse cx="144" cy="125" rx="157" ry="16" fill="#ffffff" opacity="0.18"/><path d="M0 468 L100 481 L200 478 L300 485 L400 491 L500 469 L600 481 L700 469 L800 467 L900 490 L900 900 L0 900 Z" fill="url(#r1204)"/><path d="M0 393 L113 401 L225 416 L338 374 L450 385 L563 392 L675 396 L788 419 L900 376 L900 900 L0 900 Z" fill="#A66E8C"/><path d="M0 315 L150 270 L300 304 L450 278 L600 320 L750 309 L900 286 L900 900 L0 900 Z" fill="#70455E"/><path d="M131 298 Q140 242 150 270 Q160 242 169 298 Z" fill="#ffffff" opacity="0.95"/><path d="M430 298 Q440 257 450 278 Q460 257 470 298 Z" fill="#ffffff" opacity="0.95"/><path d="M422 391 Q436 357 450 374 Q464 357 478 391 Z" fill="#ffffff" opacity="0.95"/><rect x="0" y="468" width="900" height="132" fill="url(#r1204)" opacity="0.9"/><rect x="0" y="468" width="900" height="4" fill="#ffffff" opacity="0.3"/><rect x="0" y="478" width="900" height="122" fill="#8C4E66" opacity="0.55"/><rect x="735" y="472" width="27" height="120" fill="#FFD9A0" opacity="0.35"/><rect x="0" y="558" width="900" height="42" fill="#3D2B33" opacity="0.5"/><path d="M239 559 L248 578 L243 578 L247 584 L239 588 L232 584 L236 578 L230 578 Z" fill="#3D2B33" opacity="0.77"/><path d="M947 541 L961 572 L952 572 L959 582 L947 588 L934 582 L941 572 L932 572 Z" fill="#3D2B33" opacity="0.51"/><path d="M475 560 L483 579 L478 579 L482 585 L475 588 L467 585 L471 579 L466 579 Z" fill="#3D2B33" opacity="0.67"/><path d="M159 524 L179 567 L166 567 L176 580 L159 588 L142 580 L152 567 L139 567 Z" fill="#3D2B33" opacity="0.51"/><path d="M912 533 L929 570 L918 570 L926 581 L912 588 L898 581 L906 570 L895 570 Z" fill="#3D2B33" opacity="0.82"/><path d="M135 547 L148 574 L140 574 L146 583 L135 588 L124 583 L130 574 L122 574 Z" fill="#3D2B33" opacity="0.68"/><path d="M827 531 L845 569 L833 569 L842 581 L827 588 L812 581 L821 569 L809 569 Z" fill="#3D2B33" opacity="0.65"/><path d="M401 537 L417 571 L407 571 L414 582 L401 588 L388 582 L395 571 L385 571 Z" fill="#3D2B33" opacity="0.52"/><path d="M433 537 L449 571 L439 571 L446 582 L433 588 L420 582 L427 571 L417 571 Z" fill="#3D2B33" opacity="0.75"/><path d="M100 176 q5 -6 10 0 q5 -6 10 0" stroke="#ffffff" stroke-width="2.4" fill="none" stroke-linecap="round"/><path d="M124 175 q5 -6 10 0 q5 -6 10 0" stroke="#ffffff" stroke-width="2.4" fill="none" stroke-linecap="round"/><path d="M203 175 q5 -6 10 0 q5 -6 10 0" stroke="#ffffff" stroke-width="2.4" fill="none" stroke-linecap="round"/><path d="M202 185 q5 -6 10 0 q5 -6 10 0" stroke="#ffffff" stroke-width="2.4" fill="none" stroke-linecap="round"/><path d="M274 172 q5 -6 10 0 q5 -6 10 0" stroke="#ffffff" stroke-width="2.4" fill="none" stroke-linecap="round"/>
</svg>