<svg xmlns="http://www.w3.org/2000/svg" viewBox="0 0 900 1150" preserveAspectRatio="xMidYMid slice">
<defs><linearGradient id="r1200" x1="0" y1="0" x2="0" y2="1"><stop offset="0" stop-color="#F5E9C9"/><stop offset="0.55" stop-color="#E4CE9A"/><stop offset="1" stop-color="#D2B476"/></linearGradient></defs>
<rect width="900" height="1150" fill="url(#g1200)"/>
<linearGradient id="g1200" x1="0" y1="0" x2="0" y2="1"><stop offset="0" stop-color="#7A5A12"/><stop offset="0.55" stop-color="#C99A3A"/><stop offset="1" stop-color="#F2D89B"/></linearGradient><circle cx="496.65349279996" cy="299" r="45" fill="#FFF3C4"/><circle cx="496.65349279996" cy="299" r="63" fill="#FFF3C4" opacity="0.25"/><ellipse cx="433" cy="179" rx="132" ry="16" fill="#ffffff" opacity="0.20"/><ellipse cx="648" cy="256" rx="91" ry="16" fill="#ffffff" opacity="0.19"/><ellipse cx="431" cy="230" rx="111" ry="16" fill="#ffffff" opacity="0.15"/><path d="M0 945 L100 893 L200 914 L300 887 L400 903 L500 914 L600 926 L700 917 L800 941 L900 925 L900 900 L0 900 Z" fill="url(#r1200)"/><path d="M0 736 L113 762 L225 804 L338 724 L450 731 L563 748 L675 739 L788 775 L900 787 L900 900 L0 900 Z" fill="#C0A05F"/><path d="M0 548 L150 585 L300 542 L450 545 L600 596 L750 514 L900 571 L900 900 L0 900 Z" fill="#8A6A2C"/><path d="M277 561 Q289 524 300 542 Q311 524 323 561 Z" fill="#ffffff" opacity="0.95"/><path d="M725 540 Q737 489 750 514 Q763 489 775 540 Z" fill="#ffffff" opacity="0.95"/><path d="M423 740 Q437 708 450 724 Q463 708 477 740 Z" fill="#ffffff" opacity="0.95"/><rect x="437" y="553" width="25" height="86" fill="#7A6A45"/><path d="M336 614 l114 -30 l114 30 l-18 13 l-96 -15 l-96 15 Z" fill="#7A6A45"/><path d="M364 578 l86 -30 l86 30 l-14 13 l-72 -15 l-72 15 Z" fill="#7A6A45"/><path d="M392 543 l58 -30 l58 30 l-9 13 l-49 -15 l-49 15 Z" fill="#7A6A45"/><rect x="0" y="897" width="900" height="253" fill="url(#r1200)" opacity="0.9"/><rect x="0" y="897" width="900" height="4" fill="#ffffff" opacity="0.3"/><rect x="0" y="907" width="900" height="243" fill="#B58F3C" opacity="0.55"/><rect x="483" y="901" width="27" height="241" fill="#FFF3C4" opacity="0.35"/><rect x="0" y="1070" width="900" height="81" fill="#5C5A22" opacity="0.5"/><path d="M38 1099 L46 1118 L41 1118 L45 1124 L38 1127 L30 1124 L35 1118 L29 1118 Z" fill="#5C5A22" opacity="0.87"/><path d="M754 1070 L772 1108 L760 1108 L769 1120 L754 1127 L739 1120 L748 1108 L736 1108 Z" fill="#5C5A22" opacity="0.76"/><path d="M797 1062 L817 1105 L804 1105 L814 1119 L797 1127 L780 1119 L789 1105 L776 1105 Z" fill="#5C5A22" opacity="0.74"/><path d="M688 1100 L696 1118 L690 1118 L694 1124 L688 1127 L681 1124 L685 1118 L679 1118 Z" fill="#5C5A22" opacity="0.85"/><path d="M979 1076 L994 1110 L984 1110 L992 1121 L979 1127 L965 1121 L973 1110 L963 1110 Z" fill="#5C5A22" opacity="0.58"/><path d="M212 1068 L231 1107 L219 1107 L228 1120 L212 1127 L197 1120 L206 1107 L194 1107 Z" fill="#5C5A22" opacity="0.89"/><path d="M607 1066 L626 1107 L613 1107 L623 1120 L607 1127 L591 1120 L600 1107 L588 1107 Z" fill="#5C5A22" opacity="0.73"/><path d="M862 1083 L876 1112 L867 1112 L873 1122 L862 1127 L851 1122 L857 1112 L848 1112 Z" fill="#5C5A22" opacity="0.61"/><path d="M468 1062 L488 1105 L476 1105 L485 1119 L468 1127 L451 1119 L461 1105 L448 1105 Z" fill="#5C5A22" opacity="0.70"/><path d="M93 347 q5 -6 10 0 q5 -6 10 0" stroke="#ffffff" stroke-width="2.4" fill="none" stroke-linecap="round"/><path d="M146 342 q5 -6 10 0 q5 -6 10 0" stroke="#ffffff" stroke-width="2.4" fill="none" stroke-linecap="round"/><path d="M191 352 q5 -6 10 0 q5 -6 10 0" stroke="#ffffff" stroke-width="2.4" fill="none" stroke-linecap="round"/><path d="M216 341 q5 -6 10 0 q5 -6 10 0" stroke="#ffffff" stroke-width="2.4" fill="none" stroke-linecap="round"/><path d="M218 352 q5 -6 10 0 q5 -6 10 0" stroke="#ffffff" stroke-width="2.4" fill="none" stroke-linecap="round"/>
</svg>